<svg xmlns="http://www.w3.org/2000/svg" viewBox="0 0 820 430" width="820" height="430" font-family="Segoe UI, Arial, sans-serif">
  <defs>
    <radialGradient id="bg_prod-keyboard" cx="60%" cy="45%" r="80%">
      <stop offset="0%" stop-color="#1d1a33"/>
      <stop offset="55%" stop-color="#0d0c18"/>
      <stop offset="100%" stop-color="#05050a"/>
    </radialGradient>
    <radialGradient id="pglow_prod-keyboard" cx="50%" cy="50%" r="50%">
      <stop offset="0%" stop-color="#9a7cf5" stop-opacity="0.5"/>
      <stop offset="45%" stop-color="#6b4fd8" stop-opacity="0.16"/>
      <stop offset="100%" stop-color="#6b4fd8" stop-opacity="0"/>
    </radialGradient>
    <linearGradient id="kbBody_prod-keyboard" x1="0" y1="0" x2="0.3" y2="1">
      <stop offset="0%" stop-color="#4a4a58"/>
      <stop offset="60%" stop-color="#2a2a36"/>
      <stop offset="100%" stop-color="#191922"/>
    </linearGradient>
    <linearGradient id="kbEdge_prod-keyboard" x1="0" y1="0" x2="1" y2="0">
      <stop offset="0%" stop-color="#ff5ea8"/>
      <stop offset="35%" stop-color="#a06bf5"/>
      <stop offset="70%" stop-color="#4ec8e8"/>
      <stop offset="100%" stop-color="#5ef0c0"/>
    </linearGradient>
    <linearGradient id="chipFill_prod-keyboard" x1="0" y1="0" x2="0" y2="1">
      <stop offset="0%" stop-color="#211f2b" stop-opacity="0.9"/>
      <stop offset="100%" stop-color="#100f18" stop-opacity="0.94"/>
    </linearGradient>
    <linearGradient id="chipTop_prod-keyboard" x1="0" y1="0" x2="0" y2="1">
      <stop offset="0%" stop-color="#ffffff" stop-opacity="0.12"/>
      <stop offset="100%" stop-color="#ffffff" stop-opacity="0"/>
    </linearGradient>
    <filter id="fGlow_prod-keyboard" x="-60%" y="-60%" width="220%" height="220%"><feGaussianBlur stdDeviation="7"/></filter>
    <filter id="fSoft_prod-keyboard" x="-40%" y="-40%" width="180%" height="180%"><feGaussianBlur stdDeviation="2.5"/></filter>
  </defs>

  <rect x="0" y="0" width="820" height="430" rx="18" fill="url(#bg_prod-keyboard)"/>
  <ellipse cx="640" cy="120" rx="150" ry="90" fill="#7d5ae0" opacity="0.06" filter="url(#fGlow_prod-keyboard)"/>
  <text x="72" y="52" fill="#c3a8ff" font-size="15" font-weight="700" letter-spacing="3">CHEAPDEALS</text>

  <ellipse cx="600" cy="215" rx="165" ry="120" fill="url(#pglow_prod-keyboard)" filter="url(#fGlow_prod-keyboard)"/>

  <g fill="none" stroke="#b79bf5" stroke-width="1.6" opacity="0.55" filter="url(#fSoft_prod-keyboard)">
    <path d="M270 122 C 350 122, 420 175, 486 202"/>
    <path d="M264 200 C 350 200, 420 203, 486 205"/>
    <path d="M288 278 C 360 278, 425 235, 486 210"/>
  </g>
  <circle cx="486" cy="205" r="4" fill="#dcc9ff"/>

  <g>
    <ellipse cx="600" cy="278" rx="130" ry="18" fill="#9a7cf5" opacity="0.18" filter="url(#fGlow_prod-keyboard)"/>
    <rect x="502" y="242" width="196" height="12" rx="6" fill="#14131c"/>
    <rect x="498" y="170" width="204" height="78" rx="12" fill="url(#kbBody_prod-keyboard)" stroke="#ffffff" stroke-opacity="0.16" stroke-width="1"/>
    <rect x="500" y="238" width="200" height="6" rx="3" fill="url(#kbEdge_prod-keyboard)" opacity="0.85" filter="url(#fSoft_prod-keyboard)"/>
    <g fill="#0f0e16" stroke="#8f86b8" stroke-opacity="0.35" stroke-width="0.6">
      <rect x="510" y="181" width="17" height="15" rx="3"/><rect x="531" y="181" width="17" height="15" rx="3"/><rect x="552" y="181" width="17" height="15" rx="3"/><rect x="573" y="181" width="17" height="15" rx="3"/><rect x="594" y="181" width="17" height="15" rx="3"/><rect x="615" y="181" width="17" height="15" rx="3"/><rect x="636" y="181" width="17" height="15" rx="3"/><rect x="657" y="181" width="17" height="15" rx="3"/><rect x="678" y="181" width="12" height="15" rx="3"/>
      <rect x="510" y="200" width="17" height="15" rx="3"/><rect x="531" y="200" width="17" height="15" rx="3"/><rect x="552" y="200" width="17" height="15" rx="3"/><rect x="573" y="200" width="17" height="15" rx="3"/><rect x="594" y="200" width="17" height="15" rx="3"/><rect x="615" y="200" width="17" height="15" rx="3"/><rect x="636" y="200" width="17" height="15" rx="3"/><rect x="657" y="200" width="33" height="15" rx="3"/>
      <rect x="510" y="219" width="24" height="15" rx="3"/><rect x="538" y="219" width="17" height="15" rx="3"/><rect x="559" y="219" width="17" height="15" rx="3"/><rect x="580" y="219" width="52" height="15" rx="3"/><rect x="636" y="219" width="17" height="15" rx="3"/><rect x="657" y="219" width="33" height="15" rx="3"/>
    </g>
    <g opacity="0.75" filter="url(#fSoft_prod-keyboard)">
      <rect x="510" y="196" width="17" height="2.5" rx="1" fill="#ff5ea8"/><rect x="531" y="196" width="17" height="2.5" rx="1" fill="#c56cf0"/><rect x="552" y="196" width="17" height="2.5" rx="1" fill="#a06bf5"/><rect x="573" y="196" width="17" height="2.5" rx="1" fill="#7b7ef8"/><rect x="594" y="196" width="17" height="2.5" rx="1" fill="#4ec8e8"/><rect x="615" y="196" width="17" height="2.5" rx="1" fill="#4ee3d0"/><rect x="636" y="196" width="17" height="2.5" rx="1" fill="#5ef0c0"/><rect x="657" y="196" width="17" height="2.5" rx="1" fill="#8ef09a"/>
      <rect x="510" y="215" width="24" height="2.5" rx="1" fill="#ff7ab8"/><rect x="580" y="215" width="52" height="2.5" rx="1" fill="#8f9bf8"/><rect x="657" y="215" width="33" height="2.5" rx="1" fill="#5ef0d8"/>
    </g>
  </g>

  <g>
    <rect x="70" y="93" width="200" height="58" rx="15" fill="url(#chipFill_prod-keyboard)" stroke="#b9a6ea" stroke-opacity="0.24" stroke-width="1"/>
    <rect x="70" y="93" width="200" height="29" rx="15" fill="url(#chipTop_prod-keyboard)"/>
    <circle cx="96" cy="122" r="11" fill="#24c9a6"/>
    <path d="M91.8 122.2 L94.8 125.2 L100.4 118.8" fill="none" stroke="#04120f" stroke-width="2.2" stroke-linecap="round" stroke-linejoin="round"/>
    <g transform="translate(118,110)" fill="none" stroke="#e7dcff" stroke-width="2" stroke-linecap="round" stroke-linejoin="round">
      <circle cx="14" cy="12" r="4"/><path d="M14 2 V6"/><path d="M14 18 V22"/><path d="M4 12 H8"/><path d="M20 12 H24"/>
    </g>
    <text x="152" y="128" fill="#f0ecfa" font-size="15.5" font-weight="600">RGB backlighting</text>

    <rect x="50" y="171" width="228" height="58" rx="15" fill="url(#chipFill_prod-keyboard)" stroke="#b9a6ea" stroke-opacity="0.24" stroke-width="1"/>
    <rect x="50" y="171" width="228" height="29" rx="15" fill="url(#chipTop_prod-keyboard)"/>
    <circle cx="76" cy="200" r="11" fill="#24c9a6"/>
    <path d="M71.8 200.2 L74.8 203.2 L80.4 196.8" fill="none" stroke="#04120f" stroke-width="2.2" stroke-linecap="round" stroke-linejoin="round"/>
    <g transform="translate(98,188)" fill="none" stroke="#e7dcff" stroke-width="2" stroke-linecap="round" stroke-linejoin="round">
      <rect x="5" y="4" width="18" height="18" rx="3"/><path d="M10 10 H18"/><path d="M10 16 H18"/>
    </g>
    <text x="132" y="206" fill="#f0ecfa" font-size="15.5" font-weight="600">Blue mechanical switches</text>

    <rect x="92" y="249" width="196" height="58" rx="15" fill="url(#chipFill_prod-keyboard)" stroke="#b9a6ea" stroke-opacity="0.24" stroke-width="1"/>
    <rect x="92" y="249" width="196" height="29" rx="15" fill="url(#chipTop_prod-keyboard)"/>
    <circle cx="118" cy="278" r="11" fill="#24c9a6"/>
    <path d="M113.8 278.2 L116.8 281.2 L122.4 274.8" fill="none" stroke="#04120f" stroke-width="2.2" stroke-linecap="round" stroke-linejoin="round"/>
    <g transform="translate(140,266)" fill="none" stroke="#e7dcff" stroke-width="2" stroke-linecap="round" stroke-linejoin="round">
      <path d="M12 3 L21 7 V13 C21 18 12 22 12 22 C12 22 3 18 3 13 V7 Z"/>
    </g>
    <text x="174" y="284" fill="#f0ecfa" font-size="15.5" font-weight="600">Durable keycaps</text>
  </g>

  <text x="72" y="368" fill="#f4f1fb" font-size="25" font-weight="700">CheapDeals Mechanical Keyboard</text>
  <text x="72" y="396" fill="#c3a8ff" font-size="16" font-weight="600">£45.00</text>
</svg>
